<?xml version="1.0" encoding="utf-8"?>
<svg version="1.1" id="bendisa" xmlns="http://www.w3.org/2000/svg" xmlns:xlink="http://www.w3.org/1999/xlink" x="0px" y="0px"
	 viewBox="0 0 512 512" style="enable-background:new 0 0 512 512;" xml:space="preserve">
<style type="text/css">
	.white{fill:#ffffff;}
</style>
<path id="mouth" class="white" d="M197.4,329.4c17.8,12,37.4,18.2,60,18.2s42.2-6.2,60-18.2c17.8-12,30.2-28.8,38.4-48H160
	C167.2,301.6,180.2,317.4,197.4,329.4z"/>
<path id="eye" class="white" d="M250.2,183c-7.2,1.4-13.4,6.2-17.8,13.4c-3.8,7.2-4.8,14.4-3.4,21.6c1.4,7.2,6.2,13.4,13.4,17.8
	c7.2,3.8,14.4,4.8,21.6,3.4c7.2-1.4,13.4-6.2,17.8-13.4c3.8-7.2,4.8-14.4,3.4-21.6s-6.2-13.4-13.4-17.8
	C265.6,182.6,258.4,181.6,250.2,183z"/>
<path id="circle" class="white" d="M260.8,409.6c-1.4,0-3.4,0-4.8,0c-43.2,0-79.2-15.4-109-44.6s-44.6-66.7-44.6-109s15.4-79.2,44.6-109
	s66.7-44.6,109-44.6s79.2,15.4,109,44.6s44.6,66.7,44.6,109c0,6.2-1,13-1.4,19.2h38.4c1-6.2,1.4-13,1.4-19.2
	c0-52.8-18.2-98.4-56.2-135.8S309.8,64,256,64s-98.4,18.2-135.8,56.2S64,202.2,64,256s18.2,98.4,56.2,135.8S202.2,448,256,448
	c1.4,0,3.4,0,4.8-1V409.6z"/>
</svg>
